
 <svg viewBox="0 0 24 24" aria-hidden="true">
        <path
          d="M12 2.5a4.5 4.5 0 0 1 4.39 3.5h.11a4.5 4.5 0 0 1 2.78 8.04 4.5 4.5 0 0 1-4.1 7.46 4.5 4.5 0 0 1-6.36 0 4.5 4.5 0 0 1-4.1-7.46A4.5 4.5 0 0 1 7.5 6h.11A4.5 4.5 0 0 1 12 2.5Zm-1.92 3.17A2.9 2.9 0 0 0 8.9 8.28l.2.72-.74.07a2.9 2.9 0 0 0-1.77 5.02l.52.48-.34.63a2.9 2.9 0 0 0 3.04 4.2l.74-.13.24.71a2.9 2.9 0 0 0 5.42 0l.24-.71.74.13a2.9 2.9 0 0 0 3.04-4.2l-.34-.63.52-.48a2.9 2.9 0 0 0-1.77-5.02l-.74-.07.2-.72a2.9 2.9 0 0 0-1.18-2.61 2.9 2.9 0 0 0-4.84 1.54L12 8l-.66-.79a2.88 2.88 0 0 0-1.26-1.54Z"
          fill="currentColor"
        />
</svg>